<svg width="238" height="238" viewBox="0 0 238 238" fill="none" xmlns="http://www.w3.org/2000/svg">
<rect width="238" height="238" rx="50" fill="#F5D009"/>
<path d="M123.54 61.4238C103.085 61.4239 86.5303 77.8805 86.5303 98.2031V134.981H124.513C144.386 134.401 160.55 118.135 160.55 98.2031C160.55 77.8814 143.996 61.4238 123.54 61.4238ZM165.5 98.2041C165.5 120.451 147.714 138.714 125.543 139.906L125.529 139.907H86.5312L86.5303 159.703H108.247V164.626H86.5303V181.5H81.582V164.626H72.5V159.703H81.582V139.905H72.5V134.981H81.582V98.2031C81.582 75.1648 100.366 56.5001 123.54 56.5C146.622 56.5 165.347 75.017 165.494 97.9307L165.5 97.9346V98.2041Z" fill="black" stroke="black"/>
</svg>
